<?xml version="1.0" encoding="utf-8"?>
<!-- Generator: Adobe Illustrator 24.1.2, SVG Export Plug-In . SVG Version: 6.00 Build 0)  -->
<svg version="1.1" id="Layer_1" xmlns="http://www.w3.org/2000/svg" xmlns:xlink="http://www.w3.org/1999/xlink" x="0px" y="0px"
	 viewBox="0 0 512 512" style="enable-background:new 0 0 512 512;" xml:space="preserve">
<style type="text/css">
	.st0{fill-rule:evenodd;clip-rule:evenodd;fill:#2FC6B7;}
	.st1{fill-rule:evenodd;clip-rule:evenodd;fill:#FE6D73;}
	.st2{fill-rule:evenodd;clip-rule:evenodd;fill:#D7E2E6;}
</style>
<g>
	<g>
		<path class="st0" d="M483.2,10H28.8C18.5,10,10,18.4,10,28.8v119.9c0,10.3,8.4,18.8,18.8,18.8h181.6l45.6,42.9l45.6-42.9h181.6
			c10.3,0,18.8-8.4,18.8-18.8V28.8C502,18.4,493.5,10,483.2,10L483.2,10z"/>
	</g>
	<g>
		<path class="st1" d="M485.8,250.5H26.2c-8.9,0-16.2,7.3-16.2,16.2v219.1c0,8.9,7.3,16.2,16.2,16.2h459.5c8.9,0,16.2-7.3,16.2-16.2
			V266.7C502,257.8,494.7,250.5,485.8,250.5L485.8,250.5z M169.8,293h58.6h58.6h58.6h58.6h55v111.7v54.7h-55h-58.6H169.8h-58.6H52.6
			v-54.7v-55.8V293h58.6L169.8,293L169.8,293z"/>
	</g>
	<g>
		<path class="st2" d="M404.4,348.9h-58.6v55.8h58.6h55V293h-55V348.9z"/>
	</g>
	<g>
		<path class="st2" d="M345.7,293h58.6v55.8h-58.6V293z"/>
	</g>
	<g>
		<path class="st2" d="M287.1,293h58.6v55.8h-58.6V293z"/>
	</g>
	<g>
		<path class="st2" d="M228.5,293h58.6v55.8h-58.6L228.5,293z"/>
	</g>
	<g>
		<path class="st2" d="M169.8,293h58.6v55.8h-58.6V293z"/>
	</g>
	<g>
		<path class="st2" d="M111.2,293h58.6v55.8h-58.6L111.2,293z"/>
	</g>
	<g>
		<path class="st2" d="M52.6,293h58.6v55.8H52.6L52.6,293z"/>
	</g>
	<g>
		<path class="st2" d="M52.6,348.9h58.6v55.8H52.6L52.6,348.9z"/>
	</g>
	<g>
		<path class="st2" d="M111.2,348.9h58.6v55.8h-58.6L111.2,348.9z"/>
	</g>
	<g>
		<path class="st2" d="M52.6,404.7h58.6v54.7H52.6L52.6,404.7z"/>
	</g>
	<g>
		<path class="st2" d="M111.2,404.7h58.6v54.7h-58.6L111.2,404.7z"/>
	</g>
	<g>
		<path class="st2" d="M169.8,348.9h58.6v55.8h-58.6V348.9z"/>
	</g>
	<g>
		<path class="st2" d="M228.5,348.9h58.6v55.8h-58.6L228.5,348.9z"/>
	</g>
	<g>
		<path class="st2" d="M287.1,348.9h58.6v55.8h-58.6V348.9z"/>
	</g>
	<g>
		<path class="st2" d="M345.7,404.7h-58.6h-58.6h-58.6v54.7h175.9V404.7z"/>
	</g>
	<g>
		<path class="st2" d="M345.7,404.7h58.6v54.7h-58.6V404.7z"/>
	</g>
	<g>
		<path class="st2" d="M404.4,404.7h55v54.7h-55V404.7z"/>
	</g>
	<g>
		<path d="M485.8,240.5H26.2C11.8,240.5,0,252.2,0,266.7v219.1C0,500.2,11.8,512,26.2,512h184.9c5.5,0,10-4.5,10-10s-4.5-10-10-10
			H26.2c-3.4,0-6.2-2.8-6.2-6.2V266.7c0-3.4,2.8-6.2,6.2-6.2h459.5c3.4,0,6.2,2.8,6.2,6.2v219.1c0,3.4-2.9,6.2-6.2,6.2H300.9
			c-5.5,0-10,4.5-10,10s4.5,10,10,10h184.9c14.5,0,26.2-11.8,26.2-26.2V266.7C512,252.2,500.2,240.5,485.8,240.5L485.8,240.5z"/>
		<path d="M459.4,469.4c5.5,0,10-4.5,10-10V293c0-5.5-4.5-10-10-10H52.6c-5.5,0-10,4.5-10,10v166.4c0,5.5,4.5,10,10,10L459.4,469.4
			L459.4,469.4z M62.6,358.9h38.6v35.8H62.6L62.6,358.9z M121.2,358.9h38.6v35.8h-38.6V358.9z M335.7,338.9h-38.6V303h38.6V338.9z
			 M355.7,303h38.6v35.8h-38.6V303z M238.5,394.7v-35.8h38.6v35.8H238.5z M179.8,394.7v-35.8h38.6v35.8H179.8z M297.1,358.9h38.6
			v35.8h-38.6V358.9z M277.1,338.9h-38.6V303h38.6V338.9z M218.5,338.9h-38.6V303h38.6V338.9z M159.8,338.9h-38.6V303h38.6V338.9z
			 M159.8,414.7v34.7h-38.6v-34.7H159.8z M179.8,414.7h155.9v34.7H179.8L179.8,414.7z M355.7,414.7h38.6v34.7h-38.6V414.7z
			 M414.4,449.4v-34.7h35v34.7H414.4z M449.4,394.7h-93.7v-35.8h48.6c5.5,0,10-4.5,10-10V303h35V394.7z M101.2,303v35.8H62.6V303
			H101.2z M62.6,414.7h38.6v34.7H62.6V414.7z"/>
		<path d="M483.2,0H28.8C12.9,0,0,12.9,0,28.8v119.9c0,15.9,12.9,28.8,28.8,28.8h177.6l42.7,40.1c1.9,1.8,4.4,2.7,6.8,2.7
			c2.5,0,4.9-0.9,6.8-2.7l42.7-40.1h177.7c15.9,0,28.8-12.9,28.8-28.8V28.8C512,12.9,499.1,0,483.2,0z M492,148.7
			c0,4.8-3.9,8.8-8.8,8.8H301.6c-2.5,0-5,1-6.8,2.7L256,196.6l-38.8-36.4c-1.9-1.7-4.3-2.7-6.8-2.7H28.8c-4.8,0-8.8-3.9-8.8-8.8
			V28.8c0-4.8,3.9-8.8,8.8-8.8h454.5c4.8,0,8.8,3.9,8.8,8.8L492,148.7L492,148.7z"/>
		<path d="M324,105H63.6c-5.5,0-10,4.5-10,10s4.5,10,10,10H324c5.5,0,10-4.5,10-10S329.5,105,324,105z"/>
		<path d="M451.2,105h-74.3c-5.5,0-10,4.5-10,10s4.5,10,10,10h74.3c5.5,0,10-4.5,10-10S456.7,105,451.2,105L451.2,105z"/>
		<path d="M63.6,72.5h74.3c5.5,0,10-4.5,10-10s-4.5-10-10-10H63.6c-5.5,0-10,4.5-10,10S58,72.5,63.6,72.5z"/>
		<path d="M451.2,52.5H190.8c-5.5,0-10,4.5-10,10s4.5,10,10,10h260.4c5.5,0,10-4.5,10-10S456.8,52.5,451.2,52.5L451.2,52.5z"/>
		<path d="M256,492c-5.5,0-10,4.5-10,10s4.5,10,10,10h0.1c5.5,0,10-4.5,10-10S261.5,492,256,492L256,492z"/>
	</g>
</g>
</svg>
